<?xml version="1.0" encoding="UTF-8" standalone="no"?>
<!DOCTYPE svg PUBLIC "-//W3C//DTD SVG 1.1//EN" "http://www.w3.org/Graphics/SVG/1.1/DTD/svg11.dtd">
<svg xmlns="http://www.w3.org/2000/svg" xmlns:xlink="http://www.w3.org/1999/xlink" version="1.1" width="425.19685pt" height="379.84254pt" viewBox="0 0 425.19685 379.84254">
<g enable-background="new">
<g>
<path transform="matrix(1,0,0,-1,0,379.84254)" d="M 335.277 37.897 L 335.492 40.218 C 340.32 52.046 341.215 59.421 341.809 64.495 C 344.641 64.495 355.484 64.495 355.484 55.186 C 355.484 46.878 348.035 40.218 337.785 40.218 L 335.492 40.218 L 335.277 37.897 C 345.152 37.897 359.09 45.44 359.09 57.007 C 359.09 60.78 357.32 63.143 355.227 64.456 C 351.59 66.835 347.703 66.835 343.672 66.835 C 340.031 66.835 337.523 66.835 333.969 65.303 C 328.34 62.811 327.531 59.292 327.531 58.952 C 327.531 58.706 327.699 58.612 327.957 58.612 C 328.629 58.612 329.598 59.206 329.945 59.421 C 330.84 60.007 330.957 60.268 331.203 61.069 C 331.809 62.772 332.992 64.241 338.332 64.495 C 337.652 55.643 335.492 47.557 332.523 40.143 C 330.957 39.596 329.945 38.612 329.945 38.186 C 329.945 37.94 329.988 37.897 330.914 37.897 Z M 335.277 37.897 " fill-rule="evenodd"/>
<path transform="matrix(1,0,0,-1,0,379.84254)" d="M 346.055 335.87 L 353.078 335.87 C 358.672 335.87 360.793 339.085 360.793 339.639 C 360.793 339.85 360.629 339.936 360.418 339.936 C 359.941 339.936 358.852 339.51 357.789 338.753 C 357.441 338.499 357.363 338.499 356.547 338.499 L 338.043 338.499 C 332.789 338.499 326.895 333.968 326.895 330.487 C 326.895 330.233 326.895 329.979 327.234 329.979 C 328.246 329.979 330.918 331.382 331.012 332.401 C 331.055 333.116 331.129 333.917 331.98 335.022 C 332.406 335.538 332.738 335.87 334.617 335.87 L 343.035 335.87 C 342.32 335.405 342.141 334.764 342.066 334.339 L 337.227 315.155 C 336.727 313.081 335.832 310.409 334.617 307.655 C 334.359 307.143 334.359 307.061 334.359 306.968 C 334.359 306.721 334.523 306.678 334.734 306.678 C 335.586 306.678 337.652 307.815 338.289 308.71 C 338.543 309.135 340.414 313.456 341.309 316.975 Z M 346.055 335.87 " fill-rule="evenodd"/>
<path transform="matrix(1,0,0,-1,0,379.84254)" d="M 89.25 194.542 L 89.234 195.35 L 89.176 196.139 L 89.09 196.921 L 88.961 197.686 L 88.801 198.444 L 88.613 199.175 L 88.383 199.897 L 88.129 200.604 L 87.848 201.292 L 87.535 201.964 L 87.195 202.612 L 86.82 203.241 L 86.418 203.854 L 86.004 204.432 L 85.551 204.991 L 85.086 205.538 L 84.59 206.046 L 84.082 206.53 L 83.547 206.991 L 82.992 207.417 L 82.422 207.815 L 81.828 208.19 L 81.223 208.53 L 80.594 208.835 L 79.957 209.116 L 79.301 209.354 L 78.641 209.565 L 77.957 209.737 L 77.27 209.874 L 76.574 209.968 L 75.859 210.026 L 75.145 210.042 L 75.145 209.116 C 79.422 209.116 85.145 205.264 85.145 194.542 C 85.145 183.741 79.164 180.221 75.176 180.221 C 70.992 180.221 65.184 183.858 65.184 194.542 C 65.184 205.425 71.078 209.116 75.145 209.116 L 75.145 210.042 C 67.559 210.042 61.086 203.276 61.086 194.542 C 61.086 185.85 67.609 179.249 75.145 179.249 C 82.848 179.249 89.25 185.987 89.25 194.542 Z M 89.25 194.542 " fill-rule="evenodd"/>
<path transform="matrix(1,0,0,-1,0,379.84254)" d="M 81.668 197.714 L 81.668 196.284 L 68.656 196.284 L 68.656 197.714 L 67.609 197.714 L 67.609 191.616 L 68.656 191.616 L 68.656 193.053 L 81.668 193.053 L 81.668 191.616 L 82.73 191.616 L 82.73 197.714 Z M 81.668 197.714 " fill-rule="evenodd"/>
<path transform="matrix(1,0,0,-1,0,379.84254)" d="M 175.219 91.71 L 178.859 91.71 C 179.707 91.71 180.133 91.71 180.133 92.557 C 180.133 93.026 179.707 93.026 178.996 93.026 L 175.473 93.026 L 176.359 97.866 C 176.535 98.749 177.133 101.753 177.387 102.26 C 177.77 103.069 178.484 103.71 179.375 103.71 C 179.539 103.71 180.645 103.71 181.453 102.932 C 179.59 102.78 179.164 101.292 179.164 100.655 C 179.164 99.686 179.922 99.175 180.738 99.175 C 181.836 99.175 183.059 100.112 183.059 101.718 C 183.059 103.667 181.102 104.635 179.375 104.635 C 177.93 104.635 175.262 103.878 173.992 99.686 C 173.746 98.792 173.609 98.366 172.598 93.026 L 169.684 93.026 C 168.867 93.026 168.406 93.026 168.406 92.229 C 168.406 91.71 168.789 91.71 169.59 91.71 L 172.387 91.71 L 169.199 74.983 C 168.441 70.874 167.727 67.007 165.516 67.007 C 165.344 67.007 164.301 67.007 163.484 67.78 C 165.438 67.897 165.812 69.428 165.812 70.065 C 165.812 71.034 165.055 71.553 164.238 71.553 C 163.145 71.553 161.918 70.62 161.918 69.003 C 161.918 67.096 163.781 66.077 165.516 66.077 C 167.844 66.077 169.547 68.577 170.305 70.194 C 171.656 72.862 172.641 77.983 172.684 78.288 Z M 175.219 91.71 " fill-rule="evenodd"/>
<path transform="matrix(1,0,0,-1,0,379.84254)" d="M 187.125 312.089 L 187.133 312.139 L 187.148 312.225 L 187.156 312.276 L 187.176 312.362 L 187.184 312.405 L 187.199 312.456 L 187.207 312.499 L 187.219 312.55 L 187.227 312.593 L 187.227 312.643 L 187.234 312.694 L 187.234 312.745 L 187.242 312.768 L 187.242 312.846 C 187.242 313.577 186.742 314.003 186.02 314.003 C 185.594 314.003 184.453 313.698 184.273 312.167 C 183.52 313.741 182.031 314.835 180.344 314.835 L 180.387 313.909 C 183.176 313.909 183.773 310.483 183.773 310.268 C 183.773 310.057 183.695 309.803 183.637 309.632 L 181.605 301.538 C 181.359 300.44 180.387 299.385 179.453 298.577 C 178.566 297.819 177.25 297.046 176.016 297.046 C 173.898 297.046 173.262 299.257 173.262 300.94 C 173.262 302.991 174.496 307.983 175.645 310.132 C 176.781 312.225 178.602 313.909 180.387 313.909 L 180.344 314.835 C 175.508 314.835 170.262 308.917 170.262 302.811 C 170.262 298.62 172.836 296.12 175.898 296.12 C 178.391 296.12 180.387 298.108 180.812 298.577 L 180.848 298.534 C 179.965 294.768 179.453 293.022 179.453 292.94 C 179.281 292.557 177.844 288.354 173.355 288.354 C 172.547 288.354 171.152 288.413 169.953 288.78 C 171.23 289.171 171.695 290.268 171.695 290.991 C 171.695 291.663 171.23 292.479 170.09 292.479 C 169.156 292.479 167.801 291.706 167.801 290.022 C 167.801 288.28 169.367 287.428 173.434 287.428 C 178.723 287.428 181.781 290.737 182.422 293.28 Z M 187.125 312.089 " fill-rule="evenodd"/>
<path transform="matrix(1,0,0,-1,0,379.84254)" d="M 374.562 204.577 L 374.562 204.593 L 374.555 204.612 L 374.555 204.671 L 374.543 204.686 L 374.543 204.702 L 374.535 204.721 L 374.527 204.737 L 374.52 204.764 L 374.512 204.78 L 374.504 204.807 L 374.492 204.823 L 374.477 204.846 L 374.461 204.866 L 374.441 204.882 L 374.426 204.909 L 374.41 204.925 L 374.391 204.932 L 374.383 204.94 L 374.367 204.952 L 374.359 204.96 L 374.34 204.968 L 374.332 204.975 L 374.316 204.983 L 374.297 204.995 L 374.281 204.995 L 374.266 205.003 L 374.246 205.01 L 374.23 205.01 L 374.215 205.018 L 374.195 205.026 L 374.152 205.026 L 374.129 205.034 L 374.086 205.034 L 374.059 205.046 L 374.016 205.046 C 373.031 205.046 369.945 204.694 368.848 204.62 C 368.5 204.577 368.031 204.534 368.031 203.768 C 368.031 203.257 368.422 203.257 369.059 203.257 C 371.094 203.257 371.168 202.968 371.168 202.546 L 371.043 201.694 L 364.902 177.288 C 364.723 176.702 364.723 176.608 364.723 176.35 C 364.723 175.382 365.574 175.171 365.965 175.171 C 366.637 175.171 367.316 175.678 367.527 176.276 L 368.328 179.491 L 369.273 183.3 C 369.52 184.233 369.773 185.163 369.988 186.147 C 370.07 186.405 370.41 187.8 370.453 188.046 C 370.574 188.436 371.891 190.807 373.336 191.956 C 374.266 192.628 375.582 193.428 377.402 193.428 C 379.223 193.428 379.691 191.991 379.691 190.468 C 379.691 188.182 378.082 183.553 377.055 180.979 C 376.723 179.991 376.508 179.491 376.508 178.639 C 376.508 176.659 377.988 175.171 379.98 175.171 C 383.969 175.171 385.531 181.35 385.531 181.694 C 385.531 182.116 385.148 182.116 385.031 182.116 C 384.605 182.116 384.605 181.991 384.391 181.35 C 383.754 179.108 382.402 176.104 380.074 176.104 C 379.34 176.104 379.051 176.53 379.051 177.499 C 379.051 178.561 379.434 179.585 379.816 180.51 C 380.496 182.331 382.402 187.374 382.402 189.831 C 382.402 192.577 380.703 194.354 377.52 194.354 C 374.852 194.354 372.82 193.053 371.254 191.104 Z M 374.562 204.577 " fill-rule="evenodd"/>
<path d="M 133.34 185.488 C 133.34 217.848 107.109 244.078 74.75 244.078 C 42.395 244.078 16.164 217.848 16.164 185.488 C 16.164 153.133 42.395 126.898 74.75 126.898 C 107.109 126.898 133.34 153.133 133.34 185.488 Z M 133.34 185.488 " fill="#ffffff" fill-rule="evenodd"/>
<path stroke-width="1.6" stroke-linecap="butt" stroke-miterlimit="4" stroke-linejoin="miter" fill="none" stroke="#000000" d="M 133.34 185.488 C 133.34 217.848 107.109 244.078 74.75 244.078 C 42.395 244.078 16.164 217.848 16.164 185.488 C 16.164 153.133 42.395 126.898 74.75 126.898 C 107.109 126.898 133.34 153.133 133.34 185.488 Z M 133.34 185.488 "/>
<path transform="matrix(1,0,0,-1,0,379.84254)" d="M 89.25 194.542 L 89.234 195.35 L 89.176 196.139 L 89.09 196.921 L 88.961 197.686 L 88.801 198.444 L 88.613 199.175 L 88.383 199.897 L 88.129 200.604 L 87.848 201.292 L 87.535 201.964 L 87.195 202.612 L 86.82 203.241 L 86.418 203.854 L 86.004 204.432 L 85.551 204.991 L 85.086 205.538 L 84.59 206.046 L 84.082 206.53 L 83.547 206.991 L 82.992 207.417 L 82.422 207.815 L 81.828 208.19 L 81.223 208.53 L 80.594 208.835 L 79.957 209.116 L 79.301 209.354 L 78.641 209.565 L 77.957 209.737 L 77.27 209.874 L 76.574 209.968 L 75.859 210.026 L 75.145 210.042 L 75.145 209.116 C 79.422 209.116 85.145 205.264 85.145 194.542 C 85.145 183.741 79.164 180.221 75.176 180.221 C 70.992 180.221 65.184 183.858 65.184 194.542 C 65.184 205.425 71.078 209.116 75.145 209.116 L 75.145 210.042 C 67.559 210.042 61.086 203.276 61.086 194.542 C 61.086 185.85 67.609 179.249 75.145 179.249 C 82.848 179.249 89.25 185.987 89.25 194.542 Z M 89.25 194.542 " fill-rule="evenodd"/>
<path transform="matrix(1,0,0,-1,0,379.84254)" d="M 81.668 197.714 L 81.668 196.284 L 68.656 196.284 L 68.656 197.714 L 67.609 197.714 L 67.609 191.616 L 68.656 191.616 L 68.656 193.053 L 81.668 193.053 L 81.668 191.616 L 82.73 191.616 L 82.73 197.714 Z M 81.668 197.714 " fill-rule="evenodd"/>
<path transform="matrix(1,0,0,-1,0,379.84254)" d="M 346.055 335.87 L 353.078 335.87 C 358.672 335.87 360.793 339.085 360.793 339.639 C 360.793 339.85 360.629 339.936 360.418 339.936 C 359.941 339.936 358.852 339.51 357.789 338.753 C 357.441 338.499 357.363 338.499 356.547 338.499 L 338.043 338.499 C 332.789 338.499 326.895 333.968 326.895 330.487 C 326.895 330.233 326.895 329.979 327.234 329.979 C 328.246 329.979 330.918 331.382 331.012 332.401 C 331.055 333.116 331.129 333.917 331.98 335.022 C 332.406 335.538 332.738 335.87 334.617 335.87 L 343.035 335.87 C 342.32 335.405 342.141 334.764 342.066 334.339 L 337.227 315.155 C 336.727 313.081 335.832 310.409 334.617 307.655 C 334.359 307.143 334.359 307.061 334.359 306.968 C 334.359 306.721 334.523 306.678 334.734 306.678 C 335.586 306.678 337.652 307.815 338.289 308.71 C 338.543 309.135 340.414 313.456 341.309 316.975 Z M 346.055 335.87 " fill-rule="evenodd"/>
<path d="M 267.086 292.969 L 411.73799 292.969 L 411.73799 363.27799 L 267.086 363.27799 Z " fill="#ffffff"/>
<path stroke-width="1.6" stroke-linecap="butt" stroke-miterlimit="4" stroke-linejoin="miter" fill="none" stroke="#000000" d="M 267.086 292.969 L 411.73799 292.969 L 411.73799 363.27799 L 267.086 363.27799 Z "/>
<path transform="matrix(1,0,0,-1,0,379.84254)" d="M 332.047 41.128 L 332.258 43.452 C 337.09 55.28 337.98 62.651 338.578 67.729 C 341.406 67.729 352.25 67.729 352.25 58.417 C 352.25 50.108 344.801 43.452 334.555 43.452 L 332.258 43.452 L 332.047 41.128 C 341.918 41.128 355.855 48.671 355.855 60.237 C 355.855 64.014 354.086 66.378 351.996 67.686 C 348.355 70.069 344.469 70.069 340.438 70.069 C 336.801 70.069 334.289 70.069 330.734 68.538 C 325.105 66.046 324.297 62.526 324.297 62.186 C 324.297 61.936 324.469 61.843 324.723 61.843 C 325.395 61.843 326.363 62.44 326.715 62.651 C 327.605 63.241 327.727 63.503 327.973 64.303 C 328.574 66.003 329.758 67.475 335.098 67.729 C 334.418 58.878 332.258 50.788 329.289 43.374 C 327.727 42.831 326.715 41.843 326.715 41.417 C 326.715 41.171 326.758 41.128 327.684 41.128 Z M 332.047 41.128 " fill-rule="evenodd"/>
<path stroke-width="1.6" stroke-linecap="butt" stroke-miterlimit="4" stroke-linejoin="miter" fill="none" stroke="#000000" d="M 120.41 143.062 L 265.062 64.676 "/>
<path transform="matrix(-1,.541899,-.541899,-1,0,0)" d="M -163.736 -161.026 L -158.109 -166.652 L -177.802 -161.027 L -158.11 -155.398 Z M -163.736 -161.026 " fill-rule="evenodd"/>
<path transform="matrix(-1,.541899,-.541899,-1,0,0)" stroke-width="1.40673" stroke-linecap="butt" stroke-miterlimit="4" stroke-linejoin="miter" fill="none" stroke="#000000" d="M -163.736 -161.026 L -158.109 -166.652 L -177.802 -161.027 L -158.11 -155.398 Z M -163.736 -161.026 "/>
<path stroke-width="1.6" stroke-linecap="butt" stroke-miterlimit="4" stroke-linejoin="miter" fill="none" stroke="#000000" d="M 122.809 225.262 L 261.18 314.27 "/>
<path transform="matrix(-1,-.643264,.643264,-1,0,0)" d="M -314.271 -103.454 L -308.89 -108.837 L -327.728 -103.454 L -308.888 -98.073 Z M -314.271 -103.454 " fill-rule="evenodd"/>
<path transform="matrix(-1,-.643264,.643264,-1,0,0)" stroke-width="1.345637" stroke-linecap="butt" stroke-miterlimit="4" stroke-linejoin="miter" fill="none" stroke="#000000" d="M -314.271 -103.454 L -308.89 -108.837 L -327.728 -103.454 L -308.888 -98.073 Z M -314.271 -103.454 "/>
<path stroke-width="1.683524" stroke-linecap="butt" stroke-miterlimit="4" stroke-linejoin="miter" fill="none" stroke="#000000" d="M 339.141 289.211 L 338.215 100.25 "/>
<path transform="matrix(.00490388,1,-1,.00490388,0,0)" d="M 118.742 -337.715 L 125.474 -344.447 L 101.906 -337.715 L 125.475 -330.978 Z M 118.742 -337.715 " fill-rule="evenodd"/>
<path transform="matrix(.00490388,1,-1,.00490388,0,0)" stroke-width="1.683504" stroke-linecap="butt" stroke-miterlimit="4" stroke-linejoin="miter" fill="none" stroke="#000000" d="M 118.742 -337.715 L 125.474 -344.447 L 101.906 -337.715 L 125.475 -330.978 Z M 118.742 -337.715 "/>
<path d="M 270.316 22.25 L 414.97203 22.25 L 414.97203 92.555 L 270.316 92.555 Z " fill="#ffffff"/>
<path stroke-width="1.6" stroke-linecap="butt" stroke-miterlimit="4" stroke-linejoin="miter" fill="none" stroke="#000000" d="M 270.316 22.25 L 414.97203 22.25 L 414.97203 92.555 L 270.316 92.555 Z "/>
<path transform="matrix(1,0,0,-1,0,379.84254)" d="M 346.055 335.87 L 353.078 335.87 C 358.672 335.87 360.793 339.085 360.793 339.639 C 360.793 339.85 360.629 339.936 360.418 339.936 C 359.941 339.936 358.852 339.51 357.789 338.753 C 357.441 338.499 357.363 338.499 356.547 338.499 L 338.043 338.499 C 332.789 338.499 326.895 333.968 326.895 330.487 C 326.895 330.233 326.895 329.979 327.234 329.979 C 328.246 329.979 330.918 331.382 331.012 332.401 C 331.055 333.116 331.129 333.917 331.98 335.022 C 332.406 335.538 332.738 335.87 334.617 335.87 L 343.035 335.87 C 342.32 335.405 342.141 334.764 342.066 334.339 L 337.227 315.155 C 336.727 313.081 335.832 310.409 334.617 307.655 C 334.359 307.143 334.359 307.061 334.359 306.968 C 334.359 306.721 334.523 306.678 334.734 306.678 C 335.586 306.678 337.652 307.815 338.289 308.71 C 338.543 309.135 340.414 313.456 341.309 316.975 Z M 346.055 335.87 " fill-rule="evenodd"/>
<path transform="matrix(1,0,0,-1,0,379.84254)" d="M 346.055 335.87 L 353.078 335.87 C 358.672 335.87 360.793 339.085 360.793 339.639 C 360.793 339.85 360.629 339.936 360.418 339.936 C 359.941 339.936 358.852 339.51 357.789 338.753 C 357.441 338.499 357.363 338.499 356.547 338.499 L 338.043 338.499 C 332.789 338.499 326.895 333.968 326.895 330.487 C 326.895 330.233 326.895 329.979 327.234 329.979 C 328.246 329.979 330.918 331.382 331.012 332.401 C 331.055 333.116 331.129 333.917 331.98 335.022 C 332.406 335.538 332.738 335.87 334.617 335.87 L 343.035 335.87 C 342.32 335.405 342.141 334.764 342.066 334.339 L 337.227 315.155 C 336.727 313.081 335.832 310.409 334.617 307.655 C 334.359 307.143 334.359 307.061 334.359 306.968 C 334.359 306.721 334.523 306.678 334.734 306.678 C 335.586 306.678 337.652 307.815 338.289 308.71 C 338.543 309.135 340.414 313.456 341.309 316.975 Z M 346.055 335.87 " fill-rule="evenodd"/>
</g>
</g>
</svg>
